<svg width="30" height="30" viewBox="0 0 30 30" fill="none" xmlns="http://www.w3.org/2000/svg">
    <path
        d="M26.25 5.48936H21.2695V4.08511C21.2695 2.93617 20.9082 1.96809 20.1855 1.18085C19.4629 0.393617 18.5742 0 17.5195 0H12.4805C11.4258 0 10.5371 0.393617 9.81445 1.18085C9.0918 1.96809 8.73047 2.93617 8.73047 4.08511V5.48936H3.75C2.69531 5.48936 1.80664 5.87234 1.08398 6.6383C0.361328 7.40426 0 8.38298 0 9.57447V15C0 15.8936 0.410156 16.3404 1.23047 16.3404V27.2553C1.23047 27.9787 1.48438 28.617 1.99219 29.1702C2.5 29.7234 3.08594 30 3.75 30H26.25C26.9141 30 27.5 29.7234 28.0078 29.1702C28.5156 28.617 28.7695 27.9787 28.7695 27.2553V16.3404C29.5898 16.3404 30 15.8936 30 15V9.57447C30 8.38298 29.6387 7.40426 28.916 6.6383C28.1934 5.87234 27.3047 5.48936 26.25 5.48936ZM11.25 4.08511C11.25 3.70213 11.3672 3.38298 11.6016 3.12766C11.8359 2.87234 12.1289 2.74468 12.4805 2.74468H17.5195C17.8711 2.74468 18.1641 2.87234 18.3984 3.12766C18.6328 3.38298 18.75 3.70213 18.75 4.08511V5.48936H11.25V4.08511ZM3.75 27.2553V16.3404H11.25V20.4255C11.25 21.1915 11.4941 21.8404 11.9824 22.3723C12.4707 22.9043 13.0664 23.1702 13.7695 23.1702H16.2305C16.9336 23.1702 17.5293 22.9043 18.0176 22.3723C18.5059 21.8404 18.75 21.1915 18.75 20.4255V16.3404H26.25V27.2553H3.75ZM13.7695 20.4255V16.3404H16.2305V20.4255H13.7695ZM27.4805 13.6596H2.51953V9.57447C2.51953 8.6383 2.92969 8.17021 3.75 8.17021H26.25C27.0703 8.17021 27.4805 8.6383 27.4805 9.57447V13.6596Z"
        fill="black" />
</svg>