<svg width="30" height="30" viewBox="0 0 30 30" fill="none" xmlns="http://www.w3.org/2000/svg">
    <path fill-rule="evenodd" clip-rule="evenodd"
        d="M20.41 9.28505C20.6211 9.2305 20.8452 9.26085 21.0341 9.36959C21.2231 9.47833 21.3619 9.6568 21.4208 9.86672C21.6976 10.8573 21.7414 11.8986 21.5487 12.9089C21.3561 13.9193 20.9323 14.8714 20.3105 15.6907C19.6887 16.51 18.8857 17.1744 17.9645 17.6317C17.0432 18.0891 16.0286 18.3271 15 18.3271C13.9715 18.3271 12.9568 18.0891 12.0356 17.6317C11.1143 17.1744 10.3113 16.51 9.68953 15.6907C9.06772 14.8714 8.64392 13.9193 8.4513 12.9089C8.25867 11.8986 8.30244 10.8573 8.57918 9.86672C8.63809 9.6568 8.77692 9.47833 8.96589 9.36959C9.15486 9.26085 9.37892 9.2305 9.59001 9.28505C12.6917 10.0851 17.3083 10.0851 20.41 9.28505ZM10.0333 11.095C9.95368 11.7949 10.0228 12.5036 10.2361 13.1749C10.4494 13.8461 10.8021 14.4647 11.2711 14.9902C11.7402 15.5156 12.3149 15.936 12.9577 16.2239C13.6005 16.5118 14.2969 16.6606 15.0013 16.6606C15.7056 16.6606 16.402 16.5118 17.0448 16.2239C17.6876 15.936 18.2624 15.5156 18.7314 14.9902C19.2004 14.4647 19.5531 13.8461 19.7664 13.1749C19.9797 12.5036 20.0488 11.7949 19.9692 11.095C16.955 11.7034 13.0467 11.7034 10.0333 11.095Z"
        fill="black" />
    <path fill-rule="evenodd" clip-rule="evenodd"
        d="M10.8333 18.7417C5.84417 19.6125 0 21.8358 0 25V30H30V25C30 21.8358 24.1558 19.6125 19.1667 18.7417V22.5H10.8333V18.7417ZM5.83333 30V22.5H7.5V30H5.83333ZM23.3333 22.5V30H25V22.5H23.3333ZM15.8333 0.0483334V3.73333C15.8333 3.95435 15.7455 4.16631 15.5893 4.32259C15.433 4.47887 15.221 4.56667 15 4.56667C14.779 4.56667 14.567 4.47887 14.4107 4.32259C14.2545 4.16631 14.1667 3.95435 14.1667 3.73333V0C13.3063 0.0454729 12.4604 0.240031 11.6667 0.575V5.4C11.6667 5.62101 11.5789 5.83298 11.4226 5.98926C11.2663 6.14554 11.0543 6.23333 10.8333 6.23333C10.6123 6.23333 10.4004 6.14554 10.2441 5.98926C10.0878 5.83298 10 5.62101 10 5.4V1.6125C8.85833 2.59417 8.2 3.8675 7.99083 4.98333C7.98367 5.02214 7.977 5.06103 7.97083 5.1L7.95417 5.11667C7.88 5.64083 7.92083 6.0725 8.0275 6.36917C8.09582 6.5756 8.08075 6.80055 7.9855 6.99603C7.89026 7.1915 7.72238 7.342 7.51771 7.41541C7.31303 7.48882 7.08777 7.47932 6.89 7.38894C6.69223 7.29856 6.53762 7.13446 6.45917 6.93167C6.44504 6.89305 6.43171 6.85416 6.41917 6.815C1.58 13.1333 28.4467 13.13 23.5725 6.80417C23.5599 6.84496 23.5466 6.88552 23.5325 6.92583C23.4557 7.12936 23.3023 7.29477 23.1051 7.38673C22.908 7.47869 22.6827 7.48991 22.4774 7.41799C22.2721 7.34607 22.103 7.19672 22.0063 7.00183C21.9097 6.80695 21.893 6.58198 21.96 6.375C22.08 6.03 22.115 5.6 22.05 5.125C22.045 5.12134 22.04 5.11773 22.035 5.11417C21.855 3.9875 21.17 2.74167 20 1.76V5.4C20 5.62101 19.9122 5.83298 19.7559 5.98926C19.5996 6.14554 19.3877 6.23333 19.1667 6.23333C18.9457 6.23333 18.7337 6.14554 18.5774 5.98926C18.4211 5.83298 18.3333 5.62101 18.3333 5.4V0.718333C18.0079 0.57217 17.673 0.448273 17.3308 0.3475C16.8412 0.204801 16.3402 0.104432 15.8333 0.0475001V0.0483334Z"
        fill="black" />
</svg>