<svg width="30" height="30" viewBox="0 0 30 30" fill="none" xmlns="http://www.w3.org/2000/svg">
    <path
        d="M15 8.18182H9.375V16.3636H15V8.18182ZM16.875 21.8182V24.5455H7.5V21.8182H16.875ZM16.875 5.45455V19.0909H7.5V5.45455H16.875ZM26.25 21.8182V24.5455H18.75V21.8182H26.25ZM26.25 16.3636V19.0909H18.75V16.3636H26.25ZM26.25 10.9091V13.6364H18.75V10.9091H26.25ZM26.25 5.45455V8.18182H18.75V5.45455H26.25ZM3.75 25.9091V5.45455H1.875V25.9091C1.875 26.2784 1.96777 26.598 2.15332 26.8679C2.33887 27.1378 2.55859 27.2727 2.8125 27.2727C3.06641 27.2727 3.28613 27.1378 3.47168 26.8679C3.65723 26.598 3.75 26.2784 3.75 25.9091ZM28.125 25.9091V2.72727H5.625V25.9091C5.625 26.3778 5.57129 26.8324 5.46387 27.2727H27.1875C27.4414 27.2727 27.6611 27.1378 27.8467 26.8679C28.0322 26.598 28.125 26.2784 28.125 25.9091ZM30 0V25.9091C30 27.0455 29.7266 28.0114 29.1797 28.8068C28.6328 29.6023 27.9688 30 27.1875 30H2.8125C2.03125 30 1.36719 29.6023 0.820312 28.8068C0.273438 28.0114 0 27.0455 0 25.9091V2.72727H3.75V0H30Z"
        fill="#131313" />
</svg>