<svg width="30" height="30" viewBox="0 0 30 30" fill="none" xmlns="http://www.w3.org/2000/svg">
    <path fill-rule="evenodd" clip-rule="evenodd"
        d="M14.5312 0.173194C14.6643 0.0610839 14.8296 0 15 0C15.1704 0 15.3357 0.0610839 15.4688 0.173194L26.5125 9.47335H28.5V14.2103H1.5V9.47335H3.4875L14.5305 0.173194H14.5312ZM15.75 3.94694V5.52591H17.25V7.10489H15.75V8.68386H14.25V7.10489H12.75V5.52591H14.25V3.94694H15.75ZM15 15.7892C14.2044 15.7892 13.4413 16.122 12.8787 16.7142C12.3161 17.3064 12 18.1096 12 18.9472V25.2631H7.5V22.1051H6V15.7892H3V22.1051H1.5V25.2631H0V30H30V25.2631H28.5V22.1051H27V15.7892H24V22.1051H22.5V25.2631H18V18.9472C18 18.1096 17.6839 17.3064 17.1213 16.7142C16.5587 16.122 15.7956 15.7892 15 15.7892ZM15 17.3682C15.3978 17.3682 15.7794 17.5346 16.0607 17.8307C16.342 18.1268 16.5 18.5284 16.5 18.9472V25.2631H13.5V18.9472C13.5 18.5284 13.658 18.1268 13.9393 17.8307C14.2206 17.5346 14.6022 17.3682 15 17.3682Z"
        fill="black" />
</svg>