<svg width="30" height="30" viewBox="0 0 30 30" fill="none" xmlns="http://www.w3.org/2000/svg">
    <path
        d="M11.25 1.40625C11.25 0.629883 11.877 0 12.6562 0H17.3438C18.123 0 18.75 0.629883 18.75 1.40625C18.75 2.18262 18.123 2.8125 17.3438 2.8125H16.4062V4.78242C18.2051 5.02734 19.8516 5.73516 21.2285 6.7793L22.623 5.3877L21.9609 4.725C21.4102 4.17539 21.4102 3.28535 21.9609 2.73633C22.5117 2.18672 23.4023 2.18672 23.9473 2.73633L27.2637 6.05273C27.8145 6.59766 27.8145 7.48828 27.2637 8.03906C26.7129 8.58984 25.8223 8.58984 25.2773 8.03906L24.6094 7.37695L23.2207 8.77148C24.2637 10.1484 24.9727 11.7949 25.2188 13.5938H27.1875V12.6562C27.1875 11.877 27.8145 11.25 28.5938 11.25C29.373 11.25 30 11.877 30 12.6562V17.3438C30 18.123 29.373 18.75 28.5938 18.75C27.8145 18.75 27.1875 18.123 27.1875 17.3438V16.4062H25.2188C24.9727 18.2051 24.2637 19.8516 23.2207 21.2285L24.6094 22.623L25.2773 21.9609C25.8223 21.4102 26.7129 21.4102 27.2637 21.9609C27.8145 22.5117 27.8145 23.4023 27.2637 23.9473L23.9473 27.2637C23.4023 27.8145 22.5117 27.8145 21.9609 27.2637C21.4102 26.7129 21.4102 25.8223 21.9609 25.2773L22.623 24.6094L21.2285 23.2207C19.8516 24.2637 18.2051 24.9727 16.4062 25.2188V27.1875H17.3438C18.123 27.1875 18.75 27.8145 18.75 28.5938C18.75 29.373 18.123 30 17.3438 30H12.6562C11.877 30 11.25 29.373 11.25 28.5938C11.25 27.8145 11.877 27.1875 12.6562 27.1875H13.5938V25.2188C11.7949 24.9727 10.1484 24.2637 8.77148 23.2207L7.37695 24.6152L8.03906 25.2773C8.58984 25.8223 8.58984 26.7129 8.03906 27.2637C7.48828 27.8145 6.59766 27.8145 6.05273 27.2637L2.73633 23.9473C2.18672 23.4023 2.18672 22.5117 2.73633 21.9609C3.28535 21.4102 4.17598 21.4102 4.725 21.9609L5.3877 22.623L6.7793 21.2285C5.73516 19.8516 5.02734 18.2051 4.78242 16.4062H2.8125V17.3438C2.8125 18.123 2.18262 18.75 1.40625 18.75C0.629883 18.75 0 18.123 0 17.3438V12.6562C0 11.877 0.629883 11.25 1.40625 11.25C2.18262 11.25 2.8125 11.877 2.8125 12.6562V13.5938H4.78242C5.02734 11.7949 5.73516 10.1484 6.7793 8.77148L5.3877 7.37695L4.725 8.03906C4.17539 8.58984 3.28535 8.58984 2.73633 8.03906C2.18672 7.48828 2.18672 6.59766 2.73633 6.05273L6.05273 2.73633C6.59766 2.1873 7.48828 2.1873 8.03906 2.73633C8.58984 3.28535 8.58984 4.17598 8.03906 4.725L7.37695 5.3877L8.77148 6.7793C10.1484 5.73516 11.7949 5.02734 13.5938 4.78242V2.8125H12.6562C11.877 2.8125 11.25 2.1832 11.25 1.40625ZM11.25 10.3125C9.69727 10.3125 8.4375 11.5723 8.4375 13.125C8.4375 14.6777 9.69727 15.9375 11.25 15.9375C12.8027 15.9375 14.0625 14.6777 14.0625 13.125C14.0625 11.5723 12.8027 10.3125 11.25 10.3125ZM17.8125 19.2188C18.5918 19.2188 19.2188 18.5918 19.2188 17.8125C19.2188 17.0332 18.5918 16.4062 17.8125 16.4062C17.0332 16.4062 16.4062 17.0332 16.4062 17.8125C16.4062 18.5918 17.0332 19.2188 17.8125 19.2188Z"
        fill="black" />
</svg>